<svg width="1720" height="852" viewBox="0 0 1720 852" fill="none" xmlns="http://www.w3.org/2000/svg">
<rect width="1720" height="852" rx="59" fill="#F4F6F5"/>
<rect x="93.5225" y="318.865" width="495.785" height="117.55" transform="rotate(-2 93.5225 318.865)" fill="#EBD96B"/>
<rect x="82" y="84.2192" width="464.743" height="112.14" transform="rotate(-2 82 84.2192)" fill="white"/>
<path d="M145.112 154.872H165.656V171H123.8V103.032H145.112V154.872ZM193.675 120.024V128.376H214.795V144.408H193.675V154.008H217.675V171H172.363V103.032H217.675V120.024H193.675ZM279.082 103.032V119.928H261.034V171H239.722V119.928H221.866V103.032H279.082ZM290.431 103.032H311.551L300.223 131.352H286.207L290.431 103.032ZM347.736 171.672C339.608 171.672 332.888 169.784 327.576 166.008C322.328 162.168 319.48 156.568 319.032 149.208H341.688C342.008 153.112 343.736 155.064 346.872 155.064C348.024 155.064 348.984 154.808 349.752 154.296C350.584 153.72 351 152.856 351 151.704C351 150.104 350.136 148.824 348.408 147.864C346.68 146.84 343.992 145.688 340.344 144.408C335.992 142.872 332.376 141.368 329.496 139.896C326.68 138.424 324.248 136.28 322.2 133.464C320.152 130.648 319.16 127.032 319.224 122.616C319.224 118.2 320.344 114.456 322.584 111.384C324.888 108.248 327.992 105.88 331.896 104.28C335.864 102.68 340.312 101.88 345.24 101.88C353.56 101.88 360.152 103.8 365.016 107.64C369.944 111.48 372.536 116.888 372.792 123.864H349.848C349.784 121.944 349.304 120.568 348.408 119.736C347.512 118.904 346.424 118.488 345.144 118.488C344.248 118.488 343.512 118.808 342.936 119.448C342.36 120.024 342.072 120.856 342.072 121.944C342.072 123.48 342.904 124.76 344.568 125.784C346.296 126.744 349.016 127.928 352.728 129.336C357.016 130.936 360.536 132.472 363.288 133.944C366.104 135.416 368.536 137.464 370.584 140.088C372.632 142.712 373.656 146.008 373.656 149.976C373.656 154.136 372.632 157.88 370.584 161.208C368.536 164.472 365.56 167.032 361.656 168.888C357.752 170.744 353.112 171.672 347.736 171.672ZM145.112 240.024V248.376H166.232V264.408H145.112V274.008H169.112V291H123.8V223.032H169.112V240.024H145.112ZM220.44 291L207.96 273.336L197.592 291H173.304L195.672 255.96L172.344 223.032H197.592L209.592 240.024L219.576 223.032H243.864L221.88 257.4L245.688 291H220.44ZM306.04 246.36C306.04 250.648 305.048 254.552 303.064 258.072C301.08 261.528 298.136 264.28 294.232 266.328C290.392 268.376 285.72 269.4 280.216 269.4H271.768V291H250.456V223.032H280.216C288.536 223.032 294.904 225.144 299.32 229.368C303.8 233.592 306.04 239.256 306.04 246.36ZM277.816 252.6C282.232 252.6 284.44 250.52 284.44 246.36C284.44 242.2 282.232 240.12 277.816 240.12H271.768V252.6H277.816ZM334.112 274.872H354.656V291H312.8V223.032H334.112V274.872ZM394.483 291.672C388.083 291.672 382.195 290.168 376.819 287.16C371.507 284.152 367.283 279.992 364.147 274.68C361.011 269.368 359.443 263.384 359.443 256.728C359.443 250.072 361.011 244.088 364.147 238.776C367.283 233.464 371.507 229.336 376.819 226.392C382.195 223.384 388.083 221.88 394.483 221.88C400.883 221.88 406.739 223.384 412.051 226.392C417.363 229.336 421.555 233.464 424.627 238.776C427.763 244.088 429.331 250.072 429.331 256.728C429.331 263.384 427.763 269.368 424.627 274.68C421.555 279.992 417.331 284.152 411.955 287.16C406.643 290.168 400.819 291.672 394.483 291.672ZM394.483 271.8C398.707 271.8 401.971 270.456 404.275 267.768C406.579 265.016 407.731 261.336 407.731 256.728C407.731 252.056 406.579 248.376 404.275 245.688C401.971 242.936 398.707 241.56 394.483 241.56C390.195 241.56 386.899 242.936 384.595 245.688C382.291 248.376 381.139 252.056 381.139 256.728C381.139 261.336 382.291 265.016 384.595 267.768C386.899 270.456 390.195 271.8 394.483 271.8ZM471.195 291L458.427 266.616H458.331V291H437.019V223.032H468.699C474.203 223.032 478.907 224.024 482.811 226.008C486.715 227.928 489.627 230.584 491.547 233.976C493.531 237.304 494.523 241.08 494.523 245.304C494.523 249.848 493.243 253.88 490.683 257.4C488.187 260.92 484.571 263.448 479.835 264.984L494.619 291H471.195ZM458.331 252.408H466.779C468.827 252.408 470.363 251.96 471.387 251.064C472.411 250.104 472.923 248.632 472.923 246.648C472.923 244.856 472.379 243.448 471.291 242.424C470.267 241.4 468.763 240.888 466.779 240.888H458.331V252.408ZM522.643 240.024V248.376H543.763V264.408H522.643V274.008H546.643V291H501.331V223.032H546.643V240.024H522.643ZM144.632 343.032V381.336C144.632 384.472 145.304 386.968 146.648 388.824C148.056 390.616 150.296 391.512 153.368 391.512C156.44 391.512 158.712 390.616 160.184 388.824C161.656 386.968 162.392 384.472 162.392 381.336V343.032H183.608V381.336C183.608 387.8 182.264 393.336 179.576 397.944C176.888 402.488 173.208 405.912 168.536 408.216C163.864 410.52 158.648 411.672 152.888 411.672C147.128 411.672 142.008 410.52 137.528 408.216C133.112 405.912 129.656 402.488 127.16 397.944C124.664 393.4 123.416 387.864 123.416 381.336V343.032H144.632ZM257.984 411H236.672L214.112 376.824V411H192.8V343.032H214.112L236.672 377.784V343.032H257.984V411ZM288.925 343.032V411H267.613V343.032H288.925ZM343.286 422.04L336.758 411.288C335.286 411.544 333.59 411.672 331.67 411.672C325.27 411.672 319.382 410.168 314.006 407.16C308.694 404.152 304.47 399.992 301.334 394.68C298.198 389.368 296.63 383.384 296.63 376.728C296.63 370.072 298.198 364.088 301.334 358.776C304.47 353.464 308.694 349.336 314.006 346.392C319.382 343.384 325.27 341.88 331.67 341.88C338.07 341.88 343.926 343.384 349.238 346.392C354.55 349.336 358.742 353.464 361.814 358.776C364.95 364.088 366.518 370.072 366.518 376.728C366.518 382.168 365.462 387.192 363.35 391.8C361.238 396.344 358.326 400.216 354.614 403.416L368.438 422.04H343.286ZM318.326 376.728C318.326 381.336 319.478 385.016 321.782 387.768C324.086 390.456 327.382 391.8 331.67 391.8C335.894 391.8 339.158 390.456 341.462 387.768C343.766 385.016 344.918 381.336 344.918 376.728C344.918 372.056 343.766 368.376 341.462 365.688C339.158 362.936 335.894 361.56 331.67 361.56C327.382 361.56 324.086 362.936 321.782 365.688C319.478 368.376 318.326 372.056 318.326 376.728ZM395.038 343.032V381.336C395.038 384.472 395.71 386.968 397.054 388.824C398.462 390.616 400.702 391.512 403.774 391.512C406.846 391.512 409.118 390.616 410.59 388.824C412.062 386.968 412.798 384.472 412.798 381.336V343.032H434.014V381.336C434.014 387.8 432.67 393.336 429.982 397.944C427.294 402.488 423.614 405.912 418.942 408.216C414.27 410.52 409.054 411.672 403.294 411.672C397.534 411.672 392.414 410.52 387.934 408.216C383.518 405.912 380.062 402.488 377.566 397.944C375.07 393.4 373.822 387.864 373.822 381.336V343.032H395.038ZM464.518 360.024V368.376H485.638V384.408H464.518V394.008H488.518V411H443.206V343.032H488.518V360.024H464.518ZM121.88 496.92C121.88 490.2 123.224 484.216 125.912 478.968C128.664 473.72 132.568 469.656 137.624 466.776C142.68 463.832 148.632 462.36 155.48 462.36C161.368 462.36 166.616 463.48 171.224 465.72C175.896 467.896 179.672 471 182.552 475.032C185.496 479.064 187.448 483.768 188.408 489.144H165.944C164.92 486.904 163.448 485.176 161.528 483.96C159.672 482.68 157.528 482.04 155.096 482.04C151.512 482.04 148.664 483.384 146.552 486.072C144.504 488.76 143.48 492.376 143.48 496.92C143.48 501.464 144.504 505.08 146.552 507.768C148.664 510.456 151.512 511.8 155.096 511.8C157.528 511.8 159.672 511.192 161.528 509.976C163.448 508.696 164.92 506.936 165.944 504.696H188.408C187.448 510.072 185.496 514.776 182.552 518.808C179.672 522.84 175.896 525.976 171.224 528.216C166.616 530.392 161.368 531.48 155.48 531.48C148.632 531.48 142.68 530.04 137.624 527.16C132.568 524.216 128.664 520.12 125.912 514.872C123.224 509.624 121.88 503.64 121.88 496.92ZM217.393 514.872H237.937V531H196.081V463.032H217.393V514.872ZM277.764 531.672C271.364 531.672 265.476 530.168 260.1 527.16C254.788 524.152 250.564 519.992 247.428 514.68C244.292 509.368 242.724 503.384 242.724 496.728C242.724 490.072 244.292 484.088 247.428 478.776C250.564 473.464 254.788 469.336 260.1 466.392C265.476 463.384 271.364 461.88 277.764 461.88C284.164 461.88 290.02 463.384 295.332 466.392C300.644 469.336 304.836 473.464 307.908 478.776C311.044 484.088 312.612 490.072 312.612 496.728C312.612 503.384 311.044 509.368 307.908 514.68C304.836 519.992 300.612 524.152 295.236 527.16C289.924 530.168 284.1 531.672 277.764 531.672ZM277.764 511.8C281.988 511.8 285.252 510.456 287.556 507.768C289.86 505.016 291.012 501.336 291.012 496.728C291.012 492.056 289.86 488.376 287.556 485.688C285.252 482.936 281.988 481.56 277.764 481.56C273.476 481.56 270.18 482.936 267.876 485.688C265.572 488.376 264.42 492.056 264.42 496.728C264.42 501.336 265.572 505.016 267.876 507.768C270.18 510.456 273.476 511.8 277.764 511.8ZM373.676 463.032V479.928H355.628V531H334.316V479.928H316.46V463.032H373.676ZM442.336 463.032V531H421.024V504.504H400.768V531H379.456V463.032H400.768V487.512H421.024V463.032H442.336ZM473.237 480.024V488.376H494.357V504.408H473.237V514.008H497.237V531H451.925V463.032H497.237V480.024H473.237ZM531.861 531.672C523.733 531.672 517.013 529.784 511.701 526.008C506.453 522.168 503.605 516.568 503.157 509.208H525.813C526.133 513.112 527.861 515.064 530.997 515.064C532.149 515.064 533.109 514.808 533.877 514.296C534.709 513.72 535.125 512.856 535.125 511.704C535.125 510.104 534.261 508.824 532.533 507.864C530.805 506.84 528.117 505.688 524.469 504.408C520.117 502.872 516.501 501.368 513.621 499.896C510.805 498.424 508.373 496.28 506.325 493.464C504.277 490.648 503.285 487.032 503.349 482.616C503.349 478.2 504.469 474.456 506.709 471.384C509.013 468.248 512.117 465.88 516.021 464.28C519.989 462.68 524.437 461.88 529.365 461.88C537.685 461.88 544.277 463.8 549.141 467.64C554.069 471.48 556.661 476.888 556.917 483.864H533.973C533.909 481.944 533.429 480.568 532.533 479.736C531.637 478.904 530.549 478.488 529.269 478.488C528.373 478.488 527.637 478.808 527.061 479.448C526.485 480.024 526.197 480.856 526.197 481.944C526.197 483.48 527.029 484.76 528.693 485.784C530.421 486.744 533.141 487.928 536.853 489.336C541.141 490.936 544.661 492.472 547.413 493.944C550.229 495.416 552.661 497.464 554.709 500.088C556.757 502.712 557.781 506.008 557.781 509.976C557.781 514.136 556.757 517.88 554.709 521.208C552.661 524.472 549.685 527.032 545.781 528.888C541.877 530.744 537.237 531.672 531.861 531.672ZM575.829 531.768C572.117 531.768 569.141 530.776 566.901 528.792C564.661 526.808 563.541 524.312 563.541 521.304C563.541 518.232 564.661 515.704 566.901 513.72C569.141 511.672 572.117 510.648 575.829 510.648C579.477 510.648 582.421 511.672 584.661 513.72C586.901 515.704 588.021 518.232 588.021 521.304C588.021 524.312 586.901 526.808 584.661 528.792C582.421 530.776 579.477 531.768 575.829 531.768Z" fill="black"/>
<path d="M124.376 622.632H132.184V625H121.464V602.696H124.376V622.632ZM135.18 604.616C134.626 604.616 134.156 604.424 133.772 604.04C133.388 603.656 133.196 603.187 133.196 602.632C133.196 602.077 133.388 601.608 133.772 601.224C134.156 600.84 134.626 600.648 135.18 600.648C135.714 600.648 136.162 600.84 136.524 601.224C136.909 601.608 137.101 602.077 137.101 602.632C137.101 603.187 136.909 603.656 136.524 604.04C136.162 604.424 135.714 604.616 135.18 604.616ZM136.589 607.464V625H133.676V607.464H136.589ZM146.479 622.312L151.92 607.464H155.024L148.143 625H144.751L137.871 607.464H141.007L146.479 622.312ZM172.289 615.56C172.289 616.115 172.257 616.701 172.193 617.32H158.177C158.284 619.048 158.87 620.403 159.937 621.384C161.025 622.344 162.337 622.824 163.873 622.824C165.132 622.824 166.177 622.536 167.009 621.96C167.862 621.363 168.46 620.573 168.801 619.592H171.937C171.468 621.277 170.529 622.653 169.121 623.72C167.713 624.765 165.964 625.288 163.873 625.288C162.209 625.288 160.716 624.915 159.393 624.168C158.092 623.421 157.068 622.365 156.321 621C155.574 619.613 155.201 618.013 155.201 616.2C155.201 614.387 155.564 612.797 156.289 611.432C157.014 610.067 158.028 609.021 159.329 608.296C160.652 607.549 162.166 607.176 163.873 607.176C165.537 607.176 167.009 607.539 168.289 608.264C169.569 608.989 170.55 609.992 171.233 611.272C171.937 612.531 172.289 613.96 172.289 615.56ZM169.281 614.952C169.281 613.843 169.036 612.893 168.545 612.104C168.054 611.293 167.382 610.685 166.529 610.28C165.697 609.853 164.769 609.64 163.745 609.64C162.273 609.64 161.014 610.109 159.969 611.048C158.945 611.987 158.358 613.288 158.209 614.952H169.281ZM188.6 609.864H184.92V625H182.008V609.864H179.736V607.464H182.008V606.216C182.008 604.253 182.509 602.824 183.512 601.928C184.536 601.011 186.168 600.552 188.408 600.552V602.984C187.128 602.984 186.221 603.24 185.688 603.752C185.176 604.243 184.92 605.064 184.92 606.216V607.464H188.6V609.864ZM198.043 625.288C196.401 625.288 194.907 624.915 193.563 624.168C192.241 623.421 191.195 622.365 190.427 621C189.681 619.613 189.307 618.013 189.307 616.2C189.307 614.408 189.691 612.829 190.459 611.464C191.249 610.077 192.315 609.021 193.659 608.296C195.003 607.549 196.507 607.176 198.171 607.176C199.835 607.176 201.339 607.549 202.683 608.296C204.027 609.021 205.083 610.067 205.851 611.432C206.641 612.797 207.035 614.387 207.035 616.2C207.035 618.013 206.63 619.613 205.819 621C205.03 622.365 203.953 623.421 202.587 624.168C201.222 624.915 199.707 625.288 198.043 625.288ZM198.043 622.728C199.089 622.728 200.07 622.483 200.987 621.992C201.905 621.501 202.641 620.765 203.195 619.784C203.771 618.803 204.059 617.608 204.059 616.2C204.059 614.792 203.782 613.597 203.227 612.616C202.673 611.635 201.947 610.909 201.051 610.44C200.155 609.949 199.185 609.704 198.139 609.704C197.073 609.704 196.091 609.949 195.195 610.44C194.321 610.909 193.617 611.635 193.083 612.616C192.55 613.597 192.283 614.792 192.283 616.2C192.283 617.629 192.539 618.835 193.051 619.816C193.585 620.797 194.289 621.533 195.163 622.024C196.038 622.493 196.998 622.728 198.043 622.728ZM212.176 610.312C212.688 609.309 213.413 608.531 214.352 607.976C215.312 607.421 216.475 607.144 217.84 607.144V610.152H217.072C213.808 610.152 212.176 611.923 212.176 615.464V625H209.264V607.464H212.176V610.312ZM229.445 602.696V625H226.533V602.696H229.445ZM241.352 607.144C243.485 607.144 245.213 607.795 246.536 609.096C247.858 610.376 248.52 612.232 248.52 614.664V625H245.64V615.08C245.64 613.331 245.202 611.997 244.328 611.08C243.453 610.141 242.258 609.672 240.744 609.672C239.208 609.672 237.981 610.152 237.064 611.112C236.168 612.072 235.72 613.469 235.72 615.304V625H232.808V607.464H235.72V609.96C236.296 609.064 237.074 608.371 238.056 607.88C239.058 607.389 240.157 607.144 241.352 607.144ZM258.812 609.864H255.132V625H252.22V609.864H249.948V607.464H252.22V606.216C252.22 604.253 252.722 602.824 253.724 601.928C254.748 601.011 256.38 600.552 258.62 600.552V602.984C257.34 602.984 256.434 603.24 255.9 603.752C255.388 604.243 255.132 605.064 255.132 606.216V607.464H258.812V609.864ZM263.52 601.32V625H260.608V601.32H263.52ZM282.435 607.464V625H279.523V622.408C278.968 623.304 278.189 624.008 277.187 624.52C276.205 625.011 275.117 625.256 273.923 625.256C272.557 625.256 271.331 624.979 270.243 624.424C269.155 623.848 268.291 622.995 267.651 621.864C267.032 620.733 266.723 619.357 266.723 617.736V607.464H269.603V617.352C269.603 619.08 270.04 620.413 270.915 621.352C271.789 622.269 272.984 622.728 274.499 622.728C276.056 622.728 277.283 622.248 278.179 621.288C279.075 620.328 279.523 618.931 279.523 617.096V607.464H282.435ZM301.752 615.56C301.752 616.115 301.72 616.701 301.656 617.32H287.64C287.746 619.048 288.333 620.403 289.4 621.384C290.488 622.344 291.8 622.824 293.336 622.824C294.594 622.824 295.64 622.536 296.472 621.96C297.325 621.363 297.922 620.573 298.264 619.592H301.4C300.93 621.277 299.992 622.653 298.584 623.72C297.176 624.765 295.426 625.288 293.336 625.288C291.672 625.288 290.178 624.915 288.856 624.168C287.554 623.421 286.53 622.365 285.784 621C285.037 619.613 284.664 618.013 284.664 616.2C284.664 614.387 285.026 612.797 285.752 611.432C286.477 610.067 287.49 609.021 288.792 608.296C290.114 607.549 291.629 607.176 293.336 607.176C295 607.176 296.472 607.539 297.752 608.264C299.032 608.989 300.013 609.992 300.696 611.272C301.4 612.531 301.752 613.96 301.752 615.56ZM298.744 614.952C298.744 613.843 298.498 612.893 298.008 612.104C297.517 611.293 296.845 610.685 295.992 610.28C295.16 609.853 294.232 609.64 293.208 609.64C291.736 609.64 290.477 610.109 289.432 611.048C288.408 611.987 287.821 613.288 287.672 614.952H298.744ZM312.539 607.144C314.673 607.144 316.401 607.795 317.723 609.096C319.046 610.376 319.707 612.232 319.707 614.664V625H316.827V615.08C316.827 613.331 316.39 611.997 315.515 611.08C314.641 610.141 313.446 609.672 311.931 609.672C310.395 609.672 309.169 610.152 308.251 611.112C307.355 612.072 306.907 613.469 306.907 615.304V625H303.995V607.464H306.907V609.96C307.483 609.064 308.262 608.371 309.243 607.88C310.246 607.389 311.345 607.144 312.539 607.144ZM326.416 609.864V620.2C326.416 621.053 326.597 621.661 326.96 622.024C327.323 622.365 327.952 622.536 328.848 622.536H330.992V625H328.368C326.747 625 325.531 624.627 324.72 623.88C323.909 623.133 323.504 621.907 323.504 620.2V609.864H321.232V607.464H323.504V603.048H326.416V607.464H330.992V609.864H326.416ZM334.424 604.616C333.87 604.616 333.4 604.424 333.016 604.04C332.632 603.656 332.44 603.187 332.44 602.632C332.44 602.077 332.632 601.608 333.016 601.224C333.4 600.84 333.87 600.648 334.424 600.648C334.958 600.648 335.406 600.84 335.768 601.224C336.152 601.608 336.344 602.077 336.344 602.632C336.344 603.187 336.152 603.656 335.768 604.04C335.406 604.424 334.958 604.616 334.424 604.616ZM335.832 607.464V625H332.92V607.464H335.832ZM338.107 616.168C338.107 614.376 338.47 612.808 339.195 611.464C339.921 610.099 340.913 609.043 342.171 608.296C343.451 607.549 344.87 607.176 346.427 607.176C347.963 607.176 349.297 607.507 350.427 608.168C351.558 608.829 352.401 609.661 352.955 610.664V607.464H355.899V625H352.955V621.736C352.379 622.76 351.515 623.613 350.363 624.296C349.233 624.957 347.91 625.288 346.395 625.288C344.838 625.288 343.43 624.904 342.171 624.136C340.913 623.368 339.921 622.291 339.195 620.904C338.47 619.517 338.107 617.939 338.107 616.168ZM352.955 616.2C352.955 614.877 352.689 613.725 352.155 612.744C351.622 611.763 350.897 611.016 349.979 610.504C349.083 609.971 348.091 609.704 347.003 609.704C345.915 609.704 344.923 609.96 344.027 610.472C343.131 610.984 342.417 611.731 341.883 612.712C341.35 613.693 341.083 614.845 341.083 616.168C341.083 617.512 341.35 618.685 341.883 619.688C342.417 620.669 343.131 621.427 344.027 621.96C344.923 622.472 345.915 622.728 347.003 622.728C348.091 622.728 349.083 622.472 349.979 621.96C350.897 621.427 351.622 620.669 352.155 619.688C352.689 618.685 352.955 617.523 352.955 616.2ZM362.132 601.32V625H359.22V601.32H362.132ZM371.338 616.168C371.338 614.376 371.701 612.808 372.426 611.464C373.152 610.099 374.144 609.043 375.402 608.296C376.682 607.549 378.101 607.176 379.658 607.176C381.194 607.176 382.528 607.507 383.658 608.168C384.789 608.829 385.632 609.661 386.186 610.664V607.464H389.13V625H386.186V621.736C385.61 622.76 384.746 623.613 383.594 624.296C382.464 624.957 381.141 625.288 379.626 625.288C378.069 625.288 376.661 624.904 375.402 624.136C374.144 623.368 373.152 622.291 372.426 620.904C371.701 619.517 371.338 617.939 371.338 616.168ZM386.186 616.2C386.186 614.877 385.92 613.725 385.386 612.744C384.853 611.763 384.128 611.016 383.21 610.504C382.314 609.971 381.322 609.704 380.234 609.704C379.146 609.704 378.154 609.96 377.258 610.472C376.362 610.984 375.648 611.731 375.114 612.712C374.581 613.693 374.314 614.845 374.314 616.168C374.314 617.512 374.581 618.685 375.114 619.688C375.648 620.669 376.362 621.427 377.258 621.96C378.154 622.472 379.146 622.728 380.234 622.728C381.322 622.728 382.314 622.472 383.21 621.96C384.128 621.427 384.853 620.669 385.386 619.688C385.92 618.685 386.186 617.523 386.186 616.2ZM400.995 607.144C403.129 607.144 404.857 607.795 406.179 609.096C407.502 610.376 408.163 612.232 408.163 614.664V625H405.283V615.08C405.283 613.331 404.846 611.997 403.971 611.08C403.097 610.141 401.902 609.672 400.387 609.672C398.851 609.672 397.625 610.152 396.707 611.112C395.811 612.072 395.363 613.469 395.363 615.304V625H392.451V607.464H395.363V609.96C395.939 609.064 396.718 608.371 397.699 607.88C398.702 607.389 399.801 607.144 400.995 607.144ZM410.232 616.168C410.232 614.376 410.595 612.808 411.32 611.464C412.046 610.099 413.038 609.043 414.296 608.296C415.576 607.549 417.006 607.176 418.584 607.176C419.95 607.176 421.219 607.496 422.392 608.136C423.566 608.755 424.462 609.576 425.08 610.6V601.32H428.024V625H425.08V621.704C424.504 622.749 423.651 623.613 422.52 624.296C421.39 624.957 420.067 625.288 418.552 625.288C416.995 625.288 415.576 624.904 414.296 624.136C413.038 623.368 412.046 622.291 411.32 620.904C410.595 619.517 410.232 617.939 410.232 616.168ZM425.08 616.2C425.08 614.877 424.814 613.725 424.28 612.744C423.747 611.763 423.022 611.016 422.104 610.504C421.208 609.971 420.216 609.704 419.128 609.704C418.04 609.704 417.048 609.96 416.152 610.472C415.256 610.984 414.542 611.731 414.008 612.712C413.475 613.693 413.208 614.845 413.208 616.168C413.208 617.512 413.475 618.685 414.008 619.688C414.542 620.669 415.256 621.427 416.152 621.96C417.048 622.472 418.04 622.728 419.128 622.728C420.216 622.728 421.208 622.472 422.104 621.96C423.022 621.427 423.747 620.669 424.28 619.688C424.814 618.685 425.08 617.523 425.08 616.2ZM441.189 602.696V625H438.277V602.696H441.189ZM453.095 607.144C455.229 607.144 456.957 607.795 458.279 609.096C459.602 610.376 460.263 612.232 460.263 614.664V625H457.383V615.08C457.383 613.331 456.946 611.997 456.071 611.08C455.197 610.141 454.002 609.672 452.487 609.672C450.951 609.672 449.725 610.152 448.807 611.112C447.911 612.072 447.463 613.469 447.463 615.304V625H444.551V607.464H447.463V609.96C448.039 609.064 448.818 608.371 449.799 607.88C450.802 607.389 451.901 607.144 453.095 607.144ZM471.964 607.144C474.098 607.144 475.826 607.795 477.148 609.096C478.471 610.376 479.132 612.232 479.132 614.664V625H476.252V615.08C476.252 613.331 475.815 611.997 474.94 611.08C474.066 610.141 472.871 609.672 471.356 609.672C469.82 609.672 468.594 610.152 467.676 611.112C466.78 612.072 466.332 613.469 466.332 615.304V625H463.42V607.464H466.332V609.96C466.908 609.064 467.687 608.371 468.668 607.88C469.671 607.389 470.77 607.144 471.964 607.144ZM489.937 625.288C488.294 625.288 486.801 624.915 485.457 624.168C484.134 623.421 483.089 622.365 482.321 621C481.574 619.613 481.201 618.013 481.201 616.2C481.201 614.408 481.585 612.829 482.353 611.464C483.142 610.077 484.209 609.021 485.553 608.296C486.897 607.549 488.401 607.176 490.065 607.176C491.729 607.176 493.233 607.549 494.577 608.296C495.921 609.021 496.977 610.067 497.745 611.432C498.534 612.797 498.929 614.387 498.929 616.2C498.929 618.013 498.524 619.613 497.713 621C496.924 622.365 495.846 623.421 494.481 624.168C493.116 624.915 491.601 625.288 489.937 625.288ZM489.937 622.728C490.982 622.728 491.964 622.483 492.881 621.992C493.798 621.501 494.534 620.765 495.089 619.784C495.665 618.803 495.953 617.608 495.953 616.2C495.953 614.792 495.676 613.597 495.121 612.616C494.566 611.635 493.841 610.909 492.945 610.44C492.049 609.949 491.078 609.704 490.033 609.704C488.966 609.704 487.985 609.949 487.089 610.44C486.214 610.909 485.51 611.635 484.977 612.616C484.444 613.597 484.177 614.792 484.177 616.2C484.177 617.629 484.433 618.835 484.945 619.816C485.478 620.797 486.182 621.533 487.057 622.024C487.932 622.493 488.892 622.728 489.937 622.728ZM507.686 622.312L513.126 607.464H516.23L509.35 625H505.958L499.078 607.464H502.214L507.686 622.312ZM516.407 616.168C516.407 614.376 516.77 612.808 517.495 611.464C518.221 610.099 519.213 609.043 520.471 608.296C521.751 607.549 523.17 607.176 524.727 607.176C526.263 607.176 527.597 607.507 528.727 608.168C529.858 608.829 530.701 609.661 531.255 610.664V607.464H534.199V625H531.255V621.736C530.679 622.76 529.815 623.613 528.663 624.296C527.533 624.957 526.21 625.288 524.695 625.288C523.138 625.288 521.73 624.904 520.471 624.136C519.213 623.368 518.221 622.291 517.495 620.904C516.77 619.517 516.407 617.939 516.407 616.168ZM531.255 616.2C531.255 614.877 530.989 613.725 530.455 612.744C529.922 611.763 529.197 611.016 528.279 610.504C527.383 609.971 526.391 609.704 525.303 609.704C524.215 609.704 523.223 609.96 522.327 610.472C521.431 610.984 520.717 611.731 520.183 612.712C519.65 613.693 519.383 614.845 519.383 616.168C519.383 617.512 519.65 618.685 520.183 619.688C520.717 620.669 521.431 621.427 522.327 621.96C523.223 622.472 524.215 622.728 525.303 622.728C526.391 622.728 527.383 622.472 528.279 621.96C529.197 621.427 529.922 620.669 530.455 619.688C530.989 618.685 531.255 617.523 531.255 616.2ZM541.072 609.864V620.2C541.072 621.053 541.254 621.661 541.616 622.024C541.979 622.365 542.608 622.536 543.504 622.536H545.648V625H543.024C541.403 625 540.187 624.627 539.376 623.88C538.566 623.133 538.16 621.907 538.16 620.2V609.864H535.888V607.464H538.16V603.048H541.072V607.464H545.648V609.864H541.072ZM549.08 604.616C548.526 604.616 548.056 604.424 547.672 604.04C547.288 603.656 547.096 603.187 547.096 602.632C547.096 602.077 547.288 601.608 547.672 601.224C548.056 600.84 548.526 600.648 549.08 600.648C549.614 600.648 550.062 600.84 550.424 601.224C550.808 601.608 551 602.077 551 602.632C551 603.187 550.808 603.656 550.424 604.04C550.062 604.424 549.614 604.616 549.08 604.616ZM550.488 607.464V625H547.576V607.464H550.488ZM560.38 622.312L565.82 607.464H568.924L562.044 625H558.652L551.772 607.464H554.908L560.38 622.312ZM586.189 615.56C586.189 616.115 586.157 616.701 586.093 617.32H572.077C572.184 619.048 572.77 620.403 573.837 621.384C574.925 622.344 576.237 622.824 577.773 622.824C579.032 622.824 580.077 622.536 580.909 621.96C581.762 621.363 582.36 620.573 582.701 619.592H585.837C585.368 621.277 584.429 622.653 583.021 623.72C581.613 624.765 579.864 625.288 577.773 625.288C576.109 625.288 574.616 624.915 573.293 624.168C571.992 623.421 570.968 622.365 570.221 621C569.474 619.613 569.101 618.013 569.101 616.2C569.101 614.387 569.464 612.797 570.189 611.432C570.914 610.067 571.928 609.021 573.229 608.296C574.552 607.549 576.066 607.176 577.773 607.176C579.437 607.176 580.909 607.539 582.189 608.264C583.469 608.989 584.45 609.992 585.133 611.272C585.837 612.531 586.189 613.96 586.189 615.56ZM583.181 614.952C583.181 613.843 582.936 612.893 582.445 612.104C581.954 611.293 581.282 610.685 580.429 610.28C579.597 609.853 578.669 609.64 577.645 609.64C576.173 609.64 574.914 610.109 573.869 611.048C572.845 611.987 572.258 613.288 572.109 614.952H583.181ZM602.5 609.864H598.82V625H595.908V609.864H593.636V607.464H595.908V606.216C595.908 604.253 596.409 602.824 597.412 601.928C598.436 601.011 600.068 600.552 602.308 600.552V602.984C601.028 602.984 600.121 603.24 599.588 603.752C599.076 604.243 598.82 605.064 598.82 606.216V607.464H602.5V609.864ZM603.207 616.168C603.207 614.376 603.57 612.808 604.295 611.464C605.021 610.099 606.013 609.043 607.271 608.296C608.551 607.549 609.97 607.176 611.527 607.176C613.063 607.176 614.397 607.507 615.527 608.168C616.658 608.829 617.501 609.661 618.055 610.664V607.464H620.999V625H618.055V621.736C617.479 622.76 616.615 623.613 615.463 624.296C614.333 624.957 613.01 625.288 611.495 625.288C609.938 625.288 608.53 624.904 607.271 624.136C606.013 623.368 605.021 622.291 604.295 620.904C603.57 619.517 603.207 617.939 603.207 616.168ZM618.055 616.2C618.055 614.877 617.789 613.725 617.255 612.744C616.722 611.763 615.997 611.016 615.079 610.504C614.183 609.971 613.191 609.704 612.103 609.704C611.015 609.704 610.023 609.96 609.127 610.472C608.231 610.984 607.517 611.731 606.983 612.712C606.45 613.693 606.183 614.845 606.183 616.168C606.183 617.512 606.45 618.685 606.983 619.688C607.517 620.669 608.231 621.427 609.127 621.96C610.023 622.472 611.015 622.728 612.103 622.728C613.191 622.728 614.183 622.472 615.079 621.96C615.997 621.427 616.722 620.669 617.255 619.688C617.789 618.685 618.055 617.523 618.055 616.2ZM630.528 625.288C629.184 625.288 627.979 625.064 626.912 624.616C625.846 624.147 625.003 623.507 624.384 622.696C623.766 621.864 623.424 620.915 623.36 619.848H626.368C626.454 620.723 626.859 621.437 627.584 621.992C628.331 622.547 629.302 622.824 630.496 622.824C631.606 622.824 632.48 622.579 633.12 622.088C633.76 621.597 634.08 620.979 634.08 620.232C634.08 619.464 633.739 618.899 633.056 618.536C632.374 618.152 631.318 617.779 629.888 617.416C628.587 617.075 627.52 616.733 626.688 616.392C625.878 616.029 625.174 615.507 624.576 614.824C624 614.12 623.712 613.203 623.712 612.072C623.712 611.176 623.979 610.355 624.512 609.608C625.046 608.861 625.803 608.275 626.784 607.848C627.766 607.4 628.886 607.176 630.144 607.176C632.086 607.176 633.654 607.667 634.848 608.648C636.043 609.629 636.683 610.973 636.768 612.68H633.856C633.792 611.763 633.419 611.027 632.736 610.472C632.075 609.917 631.179 609.64 630.048 609.64C629.003 609.64 628.171 609.864 627.552 610.312C626.934 610.76 626.624 611.347 626.624 612.072C626.624 612.648 626.806 613.128 627.168 613.512C627.552 613.875 628.022 614.173 628.576 614.408C629.152 614.621 629.942 614.867 630.944 615.144C632.203 615.485 633.227 615.827 634.016 616.168C634.806 616.488 635.478 616.979 636.032 617.64C636.608 618.301 636.907 619.165 636.928 620.232C636.928 621.192 636.662 622.056 636.128 622.824C635.595 623.592 634.838 624.2 633.856 624.648C632.896 625.075 631.787 625.288 630.528 625.288ZM648.143 607.144C649.466 607.144 650.66 607.432 651.727 608.008C652.794 608.563 653.626 609.405 654.223 610.536C654.842 611.667 655.151 613.043 655.151 614.664V625H652.271V615.08C652.271 613.331 651.834 611.997 650.959 611.08C650.084 610.141 648.89 609.672 647.375 609.672C645.839 609.672 644.612 610.152 643.695 611.112C642.799 612.072 642.351 613.469 642.351 615.304V625H639.439V601.32H642.351V609.96C642.927 609.064 643.716 608.371 644.719 607.88C645.743 607.389 646.884 607.144 648.143 607.144ZM659.812 604.616C659.257 604.616 658.788 604.424 658.404 604.04C658.02 603.656 657.828 603.187 657.828 602.632C657.828 602.077 658.02 601.608 658.404 601.224C658.788 600.84 659.257 600.648 659.812 600.648C660.345 600.648 660.793 600.84 661.156 601.224C661.54 601.608 661.732 602.077 661.732 602.632C661.732 603.187 661.54 603.656 661.156 604.04C660.793 604.424 660.345 604.616 659.812 604.616ZM661.22 607.464V625H658.308V607.464H661.22ZM672.231 625.288C670.588 625.288 669.095 624.915 667.751 624.168C666.428 623.421 665.383 622.365 664.615 621C663.868 619.613 663.495 618.013 663.495 616.2C663.495 614.408 663.879 612.829 664.647 611.464C665.436 610.077 666.503 609.021 667.847 608.296C669.191 607.549 670.695 607.176 672.359 607.176C674.023 607.176 675.527 607.549 676.871 608.296C678.215 609.021 679.271 610.067 680.039 611.432C680.828 612.797 681.223 614.387 681.223 616.2C681.223 618.013 680.817 619.613 680.007 621C679.217 622.365 678.14 623.421 676.775 624.168C675.409 624.915 673.895 625.288 672.231 625.288ZM672.231 622.728C673.276 622.728 674.257 622.483 675.175 621.992C676.092 621.501 676.828 620.765 677.383 619.784C677.959 618.803 678.247 617.608 678.247 616.2C678.247 614.792 677.969 613.597 677.415 612.616C676.86 611.635 676.135 610.909 675.239 610.44C674.343 609.949 673.372 609.704 672.327 609.704C671.26 609.704 670.279 609.949 669.383 610.44C668.508 610.909 667.804 611.635 667.271 612.616C666.737 613.597 666.471 614.792 666.471 616.2C666.471 617.629 666.727 618.835 667.239 619.816C667.772 620.797 668.476 621.533 669.351 622.024C670.225 622.493 671.185 622.728 672.231 622.728ZM691.995 607.144C694.129 607.144 695.857 607.795 697.179 609.096C698.502 610.376 699.163 612.232 699.163 614.664V625H696.283V615.08C696.283 613.331 695.846 611.997 694.971 611.08C694.097 610.141 692.902 609.672 691.387 609.672C689.851 609.672 688.625 610.152 687.707 611.112C686.811 612.072 686.363 613.469 686.363 615.304V625H683.451V607.464H686.363V609.96C686.939 609.064 687.718 608.371 688.699 607.88C689.702 607.389 690.801 607.144 691.995 607.144ZM706.096 602.696L705.744 618.696H703.312L702.96 602.696H706.096ZM704.656 625.192C704.102 625.192 703.632 625 703.248 624.616C702.864 624.232 702.672 623.763 702.672 623.208C702.672 622.653 702.864 622.184 703.248 621.8C703.632 621.416 704.102 621.224 704.656 621.224C705.19 621.224 705.638 621.416 706 621.8C706.384 622.184 706.576 622.653 706.576 623.208C706.576 623.763 706.384 624.232 706 624.616C705.638 625 705.19 625.192 704.656 625.192Z" fill="#191818"/>
<path d="M125 710.593C173 668.193 271.667 678.926 315 689.593C301.4 713.593 182.667 713.593 125 710.593Z" fill="#EBD96B"/>
<path d="M1453 104L1459.51 123.355H1480.58L1463.53 135.318L1470.05 154.673L1453 142.711L1435.95 154.673L1442.47 135.318L1425.42 123.355H1446.49L1453 104Z" fill="#E7E6E6"/>
<path d="M820 762L826.511 781.355H847.581L830.535 793.318L837.046 812.673L820 800.711L802.954 812.673L809.465 793.318L792.419 781.355H813.489L820 762Z" fill="#E7E6E6"/>
<path d="M777 68L783.511 87.3554H804.581L787.535 99.3177L794.046 118.673L777 106.711L759.954 118.673L766.465 99.3177L749.419 87.3554H770.489L777 68Z" fill="#E7E6E6"/>
<path d="M1608 704L1614.51 723.355H1635.58L1618.53 735.318L1625.05 754.673L1608 742.711L1590.95 754.673L1597.47 735.318L1580.42 723.355H1601.49L1608 704Z" fill="#E7E6E6"/>
</svg>
